<svg width="27" height="26" viewBox="0 0 27 26" fill="none" xmlns="http://www.w3.org/2000/svg">
<g clip-path="url(#clip0_1_60)">
<path d="M13.8 25C10.7196 25 7.91885 23.829 5.79413 21.9211C6.96621 19.1329 9.68997 17.6223 13.7881 17.6223C17.8904 17.6223 20.6204 19.2052 21.8002 21.9996C19.6766 23.9023 16.8753 25 13.8 25ZM13.9446 6.64404C16.5066 6.64404 18.4223 8.62628 18.4223 11.2606C18.4223 13.9698 16.4073 16.1777 13.9446 16.1777C11.4819 16.1777 9.46689 13.9698 9.46689 11.2606C9.46689 8.62628 11.3826 6.64404 13.9446 6.64404ZM13.8 0C6.62041 0 0.800049 5.82036 0.800049 13C0.800049 13.4758 0.829169 13.9443 0.879089 14.4066C0.895729 14.56 0.926409 14.7087 0.948249 14.8606C0.992449 15.1668 1.03821 15.4721 1.10321 15.7711C1.14117 15.9468 1.19109 16.1169 1.23633 16.2895C1.30653 16.5573 1.37829 16.8236 1.46461 17.0846C1.52389 17.2624 1.59097 17.4356 1.65701 17.6098C1.75061 17.8573 1.84889 18.1012 1.95705 18.3409C2.03453 18.513 2.11721 18.6826 2.20249 18.8505C2.31949 19.0824 2.44325 19.3097 2.57377 19.5333C2.66841 19.6955 2.76357 19.8552 2.86497 20.0127C3.00641 20.2327 3.15617 20.4454 3.31009 20.656C3.41773 20.8036 3.52329 20.9513 3.63717 21.0933C3.80617 21.3054 3.98609 21.5072 4.16757 21.7079C4.28197 21.8348 4.39221 21.9648 4.51181 22.0865C4.72241 22.3023 4.94497 22.503 5.16961 22.7032C5.25957 22.7833 5.34069 22.8722 5.43325 22.9502L5.43533 22.9445C7.77428 24.9205 10.7381 26.0032 13.8 26C16.858 26.0035 19.8183 24.9237 22.1559 22.9523C22.1565 22.954 22.157 22.9557 22.1575 22.9575C22.2469 22.8826 22.326 22.7968 22.4123 22.7193C22.6421 22.5155 22.8699 22.3101 23.0846 22.0906C23.2032 21.97 23.3119 21.8416 23.4252 21.7162C23.6083 21.514 23.7898 21.3106 23.9598 21.0969C24.0732 20.9555 24.1787 20.8078 24.2858 20.6612C24.4403 20.4506 24.5911 20.2368 24.7325 20.0164C25.0743 19.4809 25.378 18.9221 25.6415 18.344C25.7496 18.1043 25.8484 17.8604 25.9426 17.6129C26.0086 17.4382 26.0757 17.265 26.1344 17.0867C26.2213 16.8256 26.293 16.5594 26.3632 16.2911C26.4085 16.1184 26.4584 15.9484 26.4964 15.7732C26.5619 15.4736 26.6076 15.1679 26.6518 14.8611C26.6737 14.7092 26.7044 14.561 26.721 14.4076C26.7704 13.9448 26.8 13.4763 26.8 13C26.8 5.82036 20.9797 0 13.8 0Z" fill="white"/>
</g>
<defs>
<clipPath id="clip0_1_60">
<rect width="26" height="26" fill="white" transform="translate(0.800049)"/>
</clipPath>
</defs>
</svg>
